Coordinates
version=1
nRows=60
nColumns=12
inDegrees=yes

Units are S.I. units (second, meters, Newtons, ...)
Angles are in degrees

endheader
time	SC_y	SC_z	SC_x	AC_y	AC_z	AC_x	GH_y	GH_z	GH_yy	EL_x	PS_y
       0.0              -31.87          2.753          62.76          39.07         -3.541          1.563         -23.25         -10.99         -35.55           29.0          81.92
    0.0258              -31.88          2.754          62.76          39.07         -3.542          1.564         -23.24         -10.98         -35.57           29.0          81.92
    0.0516              -31.88          2.754          62.75          39.08         -3.543          1.566         -23.24         -10.97         -35.58          29.01          81.91
   0.07741              -31.88          2.754          62.74          39.08         -3.544          1.567         -23.23         -10.96          -35.6          29.01          81.91
    0.1032              -31.88          2.754          62.73          39.08         -3.545          1.569         -23.23         -10.95         -35.62          29.02           81.9
     0.129              -31.88          2.755          62.72          39.08         -3.546           1.57         -23.22         -10.93         -35.64          29.02           81.9
    0.1548              -31.88          2.755          62.71          39.08         -3.547          1.572         -23.21         -10.92         -35.66          29.03          81.89
    0.1806              -31.88          2.755           62.7          39.09         -3.548          1.574         -23.21         -10.91         -35.68          29.04          81.88
    0.2064              -31.88          2.756          62.69          39.09         -3.549          1.576          -23.2         -10.89          -35.7          29.05          81.88
    0.2322              -31.88          2.756          62.67          39.09          -3.55          1.578         -23.19         -10.87         -35.73          29.05          81.87
     0.258              -31.88          2.757          62.66          39.09         -3.552           1.58         -23.19         -10.85         -35.76          29.06          81.86
    0.2838              -31.89          2.757          62.65           39.1         -3.553          1.583         -23.18         -10.83         -35.79          29.07          81.85
    0.3096              -31.89          2.758          62.63           39.1         -3.555          1.585         -23.17         -10.81         -35.82          29.08          81.84
    0.3354              -31.89          2.758          62.61           39.1         -3.557          1.588         -23.16         -10.79         -35.85          29.09          81.83
    0.3612              -31.89          2.759          62.59          39.11         -3.559          1.591         -23.15         -10.76         -35.89          29.11          81.82
     0.387              -31.89           2.76          62.57          39.11         -3.561          1.595         -23.13         -10.73         -35.93          29.12           81.8
    0.4128               -31.9           2.76          62.55          39.11         -3.563          1.598         -23.12          -10.7         -35.97          29.13          81.79
    0.4386               -31.9          2.761          62.53          39.12         -3.566          1.602         -23.11         -10.67         -36.02          29.15          81.77
    0.4644               -31.9          2.762           62.5          39.12         -3.568          1.607         -23.09         -10.63         -36.07          29.17          81.76
    0.4902               -31.9          2.763          62.47          39.13         -3.571          1.611         -23.08         -10.59         -36.13          29.18          81.74
     0.516              -31.91          2.764          62.44          39.13         -3.574          1.617         -23.06         -10.55         -36.19           29.2          81.72
    0.5418              -31.91          2.765           62.4          39.14         -3.578          1.622         -23.04          -10.5         -36.26          29.23           81.7
    0.5676              -31.91          2.766          62.37          39.15         -3.582          1.629         -23.01         -10.45         -36.33          29.25          81.67
    0.5934              -31.92          2.768          62.32          39.16         -3.586          1.636         -22.99         -10.39         -36.42          29.28          81.64
    0.6192              -31.92          2.769          62.28          39.16         -3.591          1.644         -22.96         -10.33         -36.51          29.31          81.61
     0.645              -31.93          2.771          62.22          39.17         -3.596          1.652         -22.93         -10.25         -36.62          29.34          81.58
    0.6708              -31.93          2.773          62.16          39.19         -3.603          1.662          -22.9         -10.17         -36.73          29.38          81.54
    0.6966              -31.94          2.775           62.1           39.2         -3.609          1.673         -22.86         -10.08         -36.86          29.42           81.5
    0.7224              -31.95          2.778          62.02          39.21         -3.617          1.686         -22.81         -9.979         -37.01          29.47          81.45
    0.7483              -31.96           2.78          61.94          39.23         -3.626            1.7         -22.76         -9.862         -37.18          29.53           81.4
    0.7741              -31.97          2.784          61.84          39.25         -3.636          1.716         -22.71         -9.729         -37.37          29.59          81.34
    0.7999              -31.98          2.787          61.73          39.27         -3.647          1.734         -22.64         -9.576         -37.59          29.66          81.26
    0.8257              -31.99          2.791           61.6          39.29          -3.66          1.756         -22.57         -9.399         -37.85          29.74          81.18
    0.8515               -32.0          2.796          61.45          39.32         -3.676          1.781         -22.48         -9.193         -38.15          29.84          81.09
    0.8773              -32.02          2.802          61.27          39.35         -3.694           1.81         -22.38         -8.953         -38.49          29.95          80.98
    0.9031              -32.04          2.809          61.06          39.39         -3.715          1.844         -22.26         -8.669          -38.9          30.09          80.84
    0.9289              -32.06          2.817          60.81          39.44          -3.74          1.885         -22.11         -8.333         -39.39          30.24          80.69
    0.9547              -32.09          2.826          60.52          39.49          -3.77          1.933         -21.94         -7.929         -39.97          30.43           80.5
    0.9805              -32.13          2.838          60.16          39.56         -3.806          1.992         -21.73          -7.44         -40.67          30.66          80.27
     1.006              -32.17          2.852          59.72          39.64         -3.851          2.065         -21.48         -6.843         -41.53          30.94          79.99
     1.032              -32.22           2.87          59.18          39.74         -3.906          2.154         -21.17         -6.107         -42.59          31.29          79.65
     1.058              -32.29          2.892          58.51          39.87         -3.974          2.265         -20.77         -5.188         -43.92          31.72          79.23
     1.084              -32.37           2.92          57.66          40.02         -4.061          2.404         -20.28         -4.031         -45.58          32.26          78.69
     1.109              -32.48          2.955          56.59          40.23         -4.171          2.582         -19.66          -2.56          -47.7          32.95           78.0
     1.135              -32.61            3.0          55.21          40.48         -4.311           2.81         -18.85        -0.6777         -50.41          33.84          77.13
     1.161              -32.78          3.057          53.44          40.81         -4.491          3.102         -17.83          1.738          -53.9          34.97          76.01
     1.187               -33.0          3.131          51.18          41.23         -4.722          3.475         -16.51          4.824         -58.34          36.42          74.57
     1.213              -33.28          3.223          48.33          41.76         -5.011          3.943         -14.86          8.705         -63.93          38.24          72.77
     1.238              -33.62          3.336          44.87          42.41         -5.364          4.515         -12.85          13.43         -70.75          40.45          70.57
     1.264              -34.01          3.467          40.85          43.16         -5.773          5.177         -10.52          18.91         -78.64          43.02          68.02
      1.29              -34.44          3.609           36.5          43.97         -6.216          5.894          -7.99          24.85         -87.19          45.81          65.26
     1.316              -34.86           3.75          32.16          44.78         -6.658          6.612         -5.464          30.78         -95.75          48.59           62.5
     1.342              -35.25          3.881          28.14          45.53         -7.067          7.274         -3.131          36.27         -103.6          51.16          59.96
     1.367              -35.59          3.994          24.67          46.18          -7.42          7.845         -1.118          40.99         -110.5          53.38          57.76
     1.393              -35.87          4.087          21.83          46.71          -7.71          8.314         0.5338          44.87         -116.0           55.2          55.95
     1.419              -36.09           4.16          19.57          47.13          -7.94          8.687          1.847          47.96         -120.5          56.65          54.52
     1.445              -36.26          4.218           17.8          47.46          -8.12          8.979          2.876          50.38         -124.0          57.78           53.4
     1.471              -36.39          4.263          16.42          47.71         -8.261          9.207          3.677          52.26         -126.7          58.66          52.52
     1.497               -36.5          4.298          15.34          47.91          -8.37          9.385          4.303          53.73         -128.8          59.35          51.84
     1.522              -36.58          4.326           14.5          48.07         -8.457          9.524          4.796          54.89         -130.5          59.89           51.3
